# xmcd
#
# Track frame offsets:
#	150
#	10635
#	21947
#	32930
#	44315
#	56190
#	70272
#	81440
#	93352
#	104710
#	117000
#	127477
#	137017
#	151215
#	165567
#	179215
#	192182
#	206560
#	219232
#	232190
#	244822
#	256595
#	269365
#	283130
#	296602
#	309867
#	322585
#	337730
#
# Disc length: 4656 seconds
#
# Revision: 0
# Processed by: cddbd v1.5.2PL0 Copyright (c) Steve Scherf et al.
# Submitted via: audiograbber 1.83.01
#
DISCID=9b122e1c
DTITLE=Wilma Lee And Stoney Cooper - Big Midnight Special CD1
DYEAR=2007
DGENRE=Country
TTITLE0=The Little Rosewood Casket
TTITLE1=What Will I Do
TTITLE2=Two Little Orphans
TTITLE3=Wicked Path Of Sin
TTITLE4=This World Can't Stand Long
TTITLE5=Tramp On The Street
TTITLE6=Matthew Twenty-Four
TTITLE7=My Dreamboat Is Drifting
TTITLE8=Girl In The Blue Velvet Band
TTITLE9=What Good Will It Do
TTITLE10=Blue Mountain Girl
TTITLE11=I Love No One But You
TTITLE12=Willie Roy (The Crippled Boy)
TTITLE13=Thirty Pieces Of Silver
TTITLE14=What's The Matter With This World
TTITLE15=Moonlight On West Virginia
TTITLE16=No One Now
TTITLE17=He Will Save Your Soul (From The Burning Fire)
TTITLE18=I Dreamed About 'Mom Last Night
TTITLE19=On The Banks Of The River
TTITLE20=I Ain't Gonna Work Tomorrow
TTITLE21=The White Rose
TTITLE22=The Legend Of The Dogwood Tree
TTITLE23=The Message Came Special
TTITLE24=Faded Love
TTITLE25=The Golden Rocket
TTITLE26=Mother's Prayer
TTITLE27=The Ghost Train
EXTD=
EXTT0=
EXTT1=
EXTT2=
EXTT3=
EXTT4=
EXTT5=
EXTT6=
EXTT7=
EXTT8=
EXTT9=
EXTT10=
EXTT11=
EXTT12=
EXTT13=
EXTT14=
EXTT15=
EXTT16=
EXTT17=
EXTT18=
EXTT19=
EXTT20=
EXTT21=
EXTT22=
EXTT23=
EXTT24=
EXTT25=
EXTT26=
EXTT27=
PLAYORDER=
